<svg xmlns="http://www.w3.org/2000/svg" width="17.685" height="15.66" viewBox="0 0 17.685 15.66">
  <g id="add" transform="translate(0 -24)">
    <g id="Group_79" data-name="Group 79" transform="translate(0 24)">
      <g id="Group_78" data-name="Group 78">
        <circle id="Ellipse_25" data-name="Ellipse 25" cx="1.215" cy="1.215" r="1.215" transform="translate(5.451 3.864)" fill="#0b5f27"/>
        <path id="Path_64" data-name="Path 64" d="M16.639,33.551a3.742,3.742,0,0,0-2.092-1V26.379a2.429,2.429,0,0,0-.692-1.687A2.358,2.358,0,0,0,12.167,24H2.379a2.429,2.429,0,0,0-1.687.692A2.358,2.358,0,0,0,0,26.379V36.454a2.429,2.429,0,0,0,.692,1.687,2.358,2.358,0,0,0,1.687.692h9.467a3.57,3.57,0,0,0,4.792-5.282ZM.894,26.379a1.5,1.5,0,0,1,1.485-1.485h9.787a1.5,1.5,0,0,1,1.485,1.485v5.265l-2.5-2.481a.453.453,0,0,0-.641,0L6.75,32.944,4.2,30.379a.453.453,0,0,0-.641,0l-2.666,2.7ZM2.362,37.956v-.017A1.481,1.481,0,0,1,1.316,37.5a1.54,1.54,0,0,1-.422-1.046V34.344l3-3,2.548,2.548a.469.469,0,0,0,.641,0l3.763-3.78,2.464,2.481-.152.051a1.567,1.567,0,0,0-.219.067c-.068.017-.135.051-.2.068a.505.505,0,0,0-.135.068,1.569,1.569,0,0,0-.169.084l-.253.152c-.051.034-.084.051-.135.084-.034.017-.051.034-.084.051a2.036,2.036,0,0,0-.4.354A3.57,3.57,0,0,0,10.513,36.1a3.71,3.71,0,0,0,.084.743c.017.068.034.118.051.186.051.169.1.338.169.506v.017a3.1,3.1,0,0,0,.219.4Zm13.618.017a2.669,2.669,0,0,1-3.729.034c-.068-.068-.135-.152-.2-.219-.051-.051-.1-.118-.152-.169a1.6,1.6,0,0,1-.169-.287c-.034-.068-.068-.118-.1-.186a1.425,1.425,0,0,1-.084-.287c-.017-.067-.051-.152-.067-.219a2.793,2.793,0,0,1-.051-.54,2.709,2.709,0,0,1,.776-1.89,2.638,2.638,0,0,1,1.89-.776,2.709,2.709,0,0,1,1.89.776,2.609,2.609,0,0,1,.776,1.89A2.7,2.7,0,0,1,15.981,37.972Z" transform="translate(0 -24)" fill="#0b5f27"/>
        <path id="Path_65" data-name="Path 65" d="M291.026,265.885H290v-1.029a.456.456,0,0,0-.911,0v1.029h-1.029a.456.456,0,1,0,0,.911h1.029v1.029a.456.456,0,0,0,.911,0V266.8h1.029a.456.456,0,0,0,0-.911Z" transform="translate(-275.467 -254.258)" fill="#0b5f27"/>
      </g>
    </g>
  </g>
</svg>
