<svg xmlns="http://www.w3.org/2000/svg" width="27" height="27" viewBox="0 0 27 27">
  <g id="next" transform="translate(0 0.074)">
    <path id="Path_67" data-name="Path 67" d="M102.916,140.4a.626.626,0,1,0-.885.885l4.741,4.741h-12.6a.628.628,0,1,0,0,1.256h12.591l-4.741,4.741a.625.625,0,0,0,0,.885.617.617,0,0,0,.446.182.643.643,0,0,0,.446-.182l5.809-5.808a.622.622,0,0,0,.182-.446.647.647,0,0,0-.182-.446Zm0,0" transform="translate(-88.837 -133.224)" fill="#347c51"/>
    <path id="Path_68" data-name="Path 68" d="M13.5-.074a13.5,13.5,0,1,0,9.545,3.956A13.5,13.5,0,0,0,13.5-.074Zm0,25.746A12.245,12.245,0,1,1,25.747,13.427,12.261,12.261,0,0,1,13.5,25.672Zm0,0" transform="translate(0 0)" fill="#347c51"/>
  </g>
</svg>
