<svg xmlns="http://www.w3.org/2000/svg" width="33.075" height="33.075" viewBox="0 0 33.075 33.075">
  <path id="chair" d="M30.84,7.694a4.6,4.6,0,1,0-4.956,1.24c-.889.891-1.977,1.978-2.483,2.484H20.689a3.048,3.048,0,0,0-2.838,4.152H15.223a3.047,3.047,0,0,0-2.838-4.152H9.673c-.505-.505-1.592-1.592-2.483-2.484a4.6,4.6,0,1,0-4.956-1.24A4.077,4.077,0,0,0,0,11.317V20.69a4.087,4.087,0,0,0,4.083,4.083H8.3v5.258a3.048,3.048,0,0,0,3.045,3.045H21.727a3.048,3.048,0,0,0,3.045-3.045V24.772h4.22a4.088,4.088,0,0,0,4.083-4.083V11.317A4.081,4.081,0,0,0,30.84,7.694ZM24.772,4.6a2.664,2.664,0,1,1,2.663,2.663A2.667,2.667,0,0,1,24.772,4.6Zm.948,12.835a.963.963,0,0,0,.325-.214l.941-.94v2.4H25.738a2.466,2.466,0,0,0-.018-1.246Zm-1.849.658a.589.589,0,0,1-.588.588H10.31a.588.588,0,1,1,0-1.176H23.284A.589.589,0,0,1,23.871,18.095ZM18.889,31.138H17.506V20.621h1.786a4.058,4.058,0,0,0-.611,2.145v7.265a3.044,3.044,0,0,0,.207,1.107ZM13.782,20.621h1.786V31.138H14.186a3.044,3.044,0,0,0,.207-1.107V22.765a4.058,4.058,0,0,0-.611-2.145ZM7.855,18.683H6.089v-2.4l.941.94a.969.969,0,0,0,.685.284h.14a2.464,2.464,0,0,0,0,1.176ZM5.639,1.938A2.664,2.664,0,1,1,2.976,4.6,2.667,2.667,0,0,1,5.639,1.938Zm3.632,20.9H4.082A2.147,2.147,0,0,1,1.938,20.69V11.317A2.114,2.114,0,0,1,4.051,9.2a1.612,1.612,0,0,1,1.14.471c1.181,1.184,3.373,3.375,3.4,3.4a.969.969,0,0,0,.685.284h3.114a1.107,1.107,0,0,1,0,2.214H8.117L5.806,13.258a.969.969,0,0,0-1.654.685v5.709a.969.969,0,0,0,.969.969h5.19a2.147,2.147,0,0,1,2.145,2.145v7.265a1.107,1.107,0,0,1-2.214,0V23.8a.969.969,0,0,0-.969-.969ZM31.137,20.69a2.147,2.147,0,0,1-2.145,2.145H23.8a.969.969,0,0,0-.969.969v6.227a1.107,1.107,0,0,1-2.214,0V22.765a2.147,2.147,0,0,1,2.145-2.145h5.19a.969.969,0,0,0,.969-.969V13.943a.969.969,0,0,0-1.654-.685l-2.311,2.311H20.689a1.107,1.107,0,1,1,0-2.214H23.8a.968.968,0,0,0,.685-.284c.022-.022,2.215-2.213,3.391-3.393A1.616,1.616,0,0,1,29.023,9.2a2.114,2.114,0,0,1,2.114,2.114Zm0,0" transform="translate(0 0)" fill="#ed4444"/>
</svg>
