<svg id="close" xmlns="http://www.w3.org/2000/svg" width="27.333" height="27.333" viewBox="0 0 27.333 27.333">
  <path id="Path_74" data-name="Path 74" d="M13.667,27.333A13.667,13.667,0,1,1,27.333,13.667,13.682,13.682,0,0,1,13.667,27.333Zm0-25.381A11.714,11.714,0,1,0,25.381,13.667,11.728,11.728,0,0,0,13.667,1.952Zm0,0" fill="#ed4444"/>
  <path id="Path_75" data-name="Path 75" d="M157.025,158a.972.972,0,0,1-.69-.286l-9.762-9.762a.976.976,0,1,1,1.38-1.38l9.762,9.762a.976.976,0,0,1-.69,1.666Zm0,0" transform="translate(-138.477 -138.479)" fill="#ed4444"/>
  <path id="Path_76" data-name="Path 76" d="M147.262,158a.976.976,0,0,1-.69-1.666l9.762-9.762a.976.976,0,1,1,1.38,1.38l-9.762,9.762A.972.972,0,0,1,147.262,158Zm0,0" transform="translate(-138.476 -138.477)" fill="#ed4444"/>
</svg>
