<svg xmlns="http://www.w3.org/2000/svg" width="18.621" height="15.977" viewBox="0 0 18.621 15.977">
  <g id="hide" transform="translate(0 -33.926)">
    <g id="Group_82" data-name="Group 82" transform="translate(0 33.926)">
      <path id="Path_66" data-name="Path 66" d="M18.494,41.524a17.657,17.657,0,0,0-4.022-3.83L17.1,35.07a.665.665,0,0,0-.924-.957l-.016.016-2.867,2.864A8.6,8.6,0,0,0,9.311,35.93C4.257,35.93.294,41.3.127,41.524a.665.665,0,0,0,0,.782,17.657,17.657,0,0,0,4.022,3.83L1.525,48.76a.665.665,0,1,0,.924.957l.016-.016,2.867-2.864A8.6,8.6,0,0,0,9.311,47.9c5.054,0,9.017-5.366,9.184-5.594A.665.665,0,0,0,18.494,41.524ZM5.116,45.171a16.559,16.559,0,0,1-3.6-3.256c.979-1.186,4.154-4.655,7.8-4.655a7.04,7.04,0,0,1,2.985.732l-1.155,1.155a3.32,3.32,0,0,0-4.6,4.6Zm5.99-4.111a1.962,1.962,0,0,1,.2.855,2,2,0,0,1-2,2,1.962,1.962,0,0,1-.855-.2ZM7.515,42.77a1.962,1.962,0,0,1-.2-.855,2,2,0,0,1,2-2,1.962,1.962,0,0,1,.855.2Zm1.8,3.8a7.04,7.04,0,0,1-2.985-.732L7.48,44.684a3.32,3.32,0,0,0,4.6-4.6l1.423-1.423a16.56,16.56,0,0,1,3.6,3.256C16.13,43.1,12.955,46.57,9.311,46.57Z" transform="translate(0 -33.926)" fill="#347c51"/>
    </g>
  </g>
</svg>
