<svg xmlns="http://www.w3.org/2000/svg" width="35" height="26.838" viewBox="0 0 35 26.838">
  <g id="hot-pool" transform="translate(0 -59.7)">
    <path id="Path_69" data-name="Path 69" d="M1.308,80.627c13.3-3.781,18.163,3.86,32.927.006a1.025,1.025,0,0,0-.518-1.984,30.213,30.213,0,0,1-7.686,1.04L23.058,74.9a4.589,4.589,0,1,0-.589-.949L18.4,67.392l6.036-1.742a3.034,3.034,0,0,0-1.682-5.83l-9.139,2.637a3.718,3.718,0,0,0-2.129,5.535l2.762,4.452c-1.991,1.236-8.306,5.152-8.373,5.2a30.35,30.35,0,0,0-5.13,1.011,1.025,1.025,0,0,0,.561,1.973ZM24.79,70.277a2.547,2.547,0,1,1,.11,3.6A2.546,2.546,0,0,1,24.79,70.277Zm-8.257,1.958-3.3-5.323a1.668,1.668,0,0,1,.955-2.484l9.139-2.637a.983.983,0,1,1,.545,1.889L16.532,65.8a1.026,1.026,0,0,0-.587,1.526l7.607,12.261c-4.784-.4-8.672-1.845-13.594-2.064L16.2,73.647a1.025,1.025,0,0,0,.331-1.412Z" transform="translate(-0.002)" fill="#347c51"/>
    <path id="Path_70" data-name="Path 70" d="M33.715,391.047c-14.126,3.687-19.083-3.942-32.97.006a1.025,1.025,0,0,0,.561,1.973c13.3-3.781,18.163,3.86,32.927.006a1.025,1.025,0,0,0-.518-1.984Z" transform="translate(0 -307.614)" fill="#347c51"/>
  </g>
</svg>
