<?xml version="1.0" encoding="utf-8"?>
<!-- Generator: Adobe Illustrator 23.0.3, SVG Export Plug-In . SVG Version: 6.00 Build 0)  -->
<svg version="1.1" id="Layer_1" xmlns="http://www.w3.org/2000/svg" xmlns:xlink="http://www.w3.org/1999/xlink" x="0px" y="0px"
	 viewBox="0 0 100 100" style="enable-background:new 0 0 100 100;" xml:space="preserve">
<style type="text/css">
	.st0{fill:#235B30;}
	.st1{fill:#131413;}
	.st2{fill:#191919;}
	.st3{fill:#275F35;}
	.st4{fill:#EAEDE7;}
</style>
<g>
	<path class="st0" d="M70.3,49.5c-4.2-2.5-8.4-5.1-12.6-7.6c-1.6-1-3.3-1.8-5.1-2.7c-0.5-0.3-1-0.4-1.5-0.1
		c-5.2,3.4-10.5,6.7-15.7,10.1c-0.1,0.1-0.2,0.2-0.3,0.3c-1.5,0-3-0.1-4.6-0.1c-0.1-0.5,0.4-0.5,0.6-0.7c6.8-4.4,13.5-8.9,19.6-14.3
		c0.9-0.8,1.5-0.8,2.4-0.1c3.3,2.4,6.6,4.7,9.9,7.1c0.1-0.2,0.2-0.2,0.2-0.3c0.2-2.6,0.2-2.5,2.7-2.9c2.8-0.4,5.5-0.3,8.2,0.6
		c1.4,0.4,2.3,1.1,2.1,2.9c-0.2,2.7-0.2,5.4-0.3,8.1C74.1,49.1,72.2,49.6,70.3,49.5z M72.8,44.5C72.8,44.5,72.8,44.5,72.8,44.5
		c0.1-0.6,0-1.2,0.1-1.8c0.1-1.1-0.6-1.1-1.3-1.1c-0.8,0-1.3,0.1-1.2,1c0,1.1,0.1,2.3,0,3.5c-0.1,1.2,0.6,1.2,1.5,1.3
		c1,0.1,1-0.6,1-1.3C72.8,45.6,72.8,45.1,72.8,44.5z M65.7,43.2c0.1,0.3-0.6,1.4,0.8,1.2c0.6-0.1,1.8,0.4,1.5-0.9
		c-0.1-0.8,0.7-2-0.9-2.2C65.7,41.1,65.6,41.9,65.7,43.2z"/>
	<path class="st0" d="M0,63.4c0-0.2,0.1-0.4,0.1-0.6c0.2-0.1,0.3-0.2,0.5-0.2c4.3-0.6,8.2-2.4,12.2-4.2c5.6-2.5,10.8-5.6,16.2-8.5
		c0.4-0.2,0.8-0.8,1.4-0.4c0,0.5-1,1.3,0.5,1.3c0.7,0,0.5,0.5,0.3,0.9c-8,4.5-16.3,8.1-24.8,11.5c-1.9,0.8-4.1,0.5-6.1,0.6
		C0.2,63.6,0.1,63.5,0,63.4z"/>
	<path class="st0" d="M77.1,50.8c5.8,3.3,11.5,6.5,17.3,9.8c1.9,1.1,3.8,2.2,5.6,3.4c-1.7,0.1-3.3,0.1-5-0.8
		c-5.7-3.2-11.7-5.9-17.4-9.3c-0.4-0.2-0.8-0.5-1.2-0.7C76.9,52.3,77,51.6,77.1,50.8z"/>
	<path class="st1" d="M50.9,61.2c1.2-2.1,3.2-0.3,4.5-1.6c0.1,0.7-0.3,1.1-0.6,1.1c-1.4,0.3-1.9,1.4-2.5,2.5c-0.2,0.4-1,0.6-0.5,1.2
		c0.4,0.5,0.9,0.9,1.7,0.7c0.3-0.1,0.5-0.4,0.8-0.1c-1,1.2-2.3,1.5-3.4,0.6c-0.6-0.5-1-0.4-1.5-0.1c-1.9,1-3.7,0.7-4.5-0.8
		c-0.9-1.5-0.3-3.3,1.6-4.4c0.9-0.5,1.1-0.9,1-2c-0.3-1.5,1.1-3,2.5-3.2c0.9-0.1,1.7,0,2.2,0.9c0.5,0.9,0.1,1.8-0.5,2.5
		c-0.1,0.1-0.2,0.2-0.3,0.3c-0.5,0.6-1.9,0.5-1.8,1.3c0.2,1.2,0.8,2.3,1.7,3.3c0.7-0.6,0.9-1.4,1.2-2.2
		C51.9,61.3,51.5,61.3,50.9,61.2z M47.8,65.2c1.8,0,2.2-0.5,1.5-1.9c-0.4-0.8-0.7-1.5-1.1-2.3c-0.1-0.3-0.2-0.8-0.7-0.6
		c-1.1,0.6-1.6,1.5-1.5,2.7C46.1,64.4,46.8,65.1,47.8,65.2z M51.1,56.9c0-0.5-0.1-1.1-0.9-1.1c-1.1,0-1.4,0.9-1.4,1.8
		c0,0.6-0.1,1.4,0.6,1.6C49.9,59.4,51,58,51.1,56.9z"/>
	<path class="st1" d="M77.1,50.8c-0.1,0.8-0.2,1.6-0.6,2.3c-0.7,0.4-1.4,0.9-2.2,1.4c0.4,0.2,0.7,0.4,1,0.6c1.4,1,1.5,2.4,0.2,3.5
		c-1.1,1-2.5,1.4-4,1.4c-1.5,0-3-0.1-4.5-0.2c0.2-0.6,0.5-1,1-1.1c1.6,0,1.8-1.2,2.1-2.3c0.4-1.8,0.6-3.7,1.1-5.5
		c0.3-1.2-0.4-0.8-0.9-0.8c-0.1-0.1-0.3-0.2-0.4-0.3c0.2-0.1,0.4-0.1,0.4-0.4c1.9,0.1,3.8-0.3,5.7,0.3
		C76.3,50.1,76.7,50.4,77.1,50.8z M75.1,52.2c0.4-0.9,0.2-1.7-0.7-2c-1-0.4-1.6,0.1-1.7,1.1c-0.1,0.4-0.1,0.8-0.2,1.2
		C72.4,53,72,53.8,72.4,54c0.6,0.4,1.4,0,1.9-0.5C74.8,53.2,75.2,52.8,75.1,52.2z M69.8,58.7c1,0.6,1.9,0.5,2.8,0.4
		c1.2,0,2-0.5,2.1-1.8c0.1-1.3-0.4-2.2-1.8-2.5c-0.6-0.1-0.9-0.2-1,0.6C71.7,56.7,71.1,57.8,69.8,58.7z"/>
	<path class="st2" d="M61.9,50.4c1.6-1.8,3.5-0.5,5.2-0.8c-0.2,0.3-0.5,0.8-0.7,0.8c-1.5,0.1-1.4,1.3-1.6,2.3c-0.4,1.7-0.7,3.3-1,5
		c-0.3,1.2-0.7,2.4-1.6,3.3c-1.2,1.2-3.3,1.5-4.6,0.6c-0.4-0.3-0.7-0.5-0.2-0.9c0.3-0.2,0.4-0.6,0.9-0.2c1.8,1.5,3,1.1,3.6-1.2
		c0.6-2.5,1-5.1,1.6-7.7C63.8,50.2,62.7,50.7,61.9,50.4z"/>
	<path class="st1" d="M31.2,51.6c0.2-0.4,0.4-0.9-0.3-0.9c-1.5,0-0.5-0.8-0.5-1.3c0,0,0,0,0,0c1.5,0,3,0.1,4.6,0.1
		c0,0.5-0.4,0.8-0.7,0.9c-1.5,0.2-1.4,1.4-1.6,2.4c-0.4,1.9-0.7,3.9-1.2,5.7c-0.8,2.8-3,4.2-5.3,3.4c-1.3-0.4-1.3-0.7-0.3-1.7
		c0.6,0.8,1.3,1.5,2.4,1.2c1-0.3,1.3-1.2,1.5-2.1C30.3,56.7,31,54.2,31.2,51.6z"/>
	<path class="st1" d="M40.2,49.7c-2.5,1.3-4.1,4.4-3.6,7.2c0.3,1.4,1.1,2.2,2.6,2.3c1.2,0.1,2.2-0.4,3.3-0.6
		c0.1,0.2,0.1,0.3,0.1,0.3c-1.1,1.2-4.4,1.6-5.9,0.8c-1.4-0.7-2.1-2.4-1.8-4.4c0.5-3.2,2.3-5.3,5.3-6C40.2,49.4,40.2,49.6,40.2,49.7
		z"/>
	<path class="st2" d="M69.9,49.8c0.1,0.1,0.3,0.2,0.4,0.3c-1,0.5-1.9,1.2-2,2.4c-0.1,0.8-0.8,0.7-1.4,1C67.1,51.6,68,50.3,69.9,49.8
		z"/>
	<path class="st2" d="M40.2,49.7c0-0.2,0-0.3,0-0.5c0.7,0,1.5-0.1,2.2-0.1c2.1,0.1,2.2,0.4,1.1,2.5C43.2,49.5,41.7,49.7,40.2,49.7z"
		/>
	<path class="st3" d="M0.6,62.6c-0.2,0.1-0.3,0.2-0.5,0.2C0.2,62.5,0.4,62.5,0.6,62.6z"/>
	<path class="st3" d="M0,63.4c0.1,0.1,0.2,0.2,0.3,0.2C0.1,63.7-0.1,63.7,0,63.4z"/>
	<path class="st4" d="M47.8,65.2c-1-0.1-1.6-0.8-1.8-2c-0.1-1.2,0.4-2.2,1.5-2.7c0.5-0.3,0.5,0.3,0.7,0.6c0.3,0.8,0.7,1.5,1.1,2.3
		C49.9,64.7,49.6,65.2,47.8,65.2z"/>
	<path class="st4" d="M51.1,56.9c0,1-1.2,2.5-1.8,2.3c-0.7-0.3-0.6-1-0.6-1.6c0-0.9,0.3-1.8,1.4-1.8C50.9,55.8,51.1,56.4,51.1,56.9z
		"/>
	<path class="st3" d="M75.1,52.2c-0.9-0.1-1.4-1.3-2.5-0.9c0.1-1,0.7-1.5,1.7-1.1C75.3,50.5,75.5,51.3,75.1,52.2z"/>
</g>
</svg>
