<svg xmlns="http://www.w3.org/2000/svg" width="18.002" height="10.678" viewBox="0 0 18.002 10.678">
  <g id="Group_59" data-name="Group 59" transform="translate(27.502 124.005) rotate(180)">
    <g id="Group_58" data-name="Group 58" transform="translate(10 113.88)">
      <path id="Path_58" data-name="Path 58" d="M26.972,118.555a.344.344,0,0,0-.079-.118l-4.432-4.452a.361.361,0,0,0-.511.511l3.815,3.835H10.361a.361.361,0,1,0,0,.722H25.767l-3.918,3.835a.361.361,0,0,0,.511.511l4.534-4.451a.385.385,0,0,0,.078-.118A.358.358,0,0,0,26.972,118.555Z" transform="translate(-10 -113.88)" fill="#fff" stroke="#fff" stroke-width="1"/>
    </g>
  </g>
</svg>
