<svg xmlns="http://www.w3.org/2000/svg" width="49" height="32.606" viewBox="0 0 49 32.606">
  <g id="Group_26" data-name="Group 26" transform="translate(0 -141.356)">
    <path id="Path_30" data-name="Path 30" d="M49,164.423V146.684a5.337,5.337,0,0,0-5.336-5.328H5.165A5.168,5.168,0,0,0,0,146.515V168.8a5.168,5.168,0,0,0,5.165,5.159H43.835A5.167,5.167,0,0,0,49,168.8v-4.38Zm-5.165,7.334H5.165A2.961,2.961,0,0,1,2.2,168.8V146.515a2.961,2.961,0,0,1,2.96-2.954h38.5a3.13,3.13,0,0,1,3.129,3.126v18.839s0,0,0,0V168.8a2.96,2.96,0,0,1-2.96,2.954Z" fill="#347c51"/>
    <path id="Path_31" data-name="Path 31" d="M65.983,251.962A4.043,4.043,0,0,0,64.54,249.3L64,248.86a4.061,4.061,0,0,0-.837-.534,4.338,4.338,0,1,0-7.036,0,4.067,4.067,0,0,0-.837.534l-.536.444a4.044,4.044,0,0,0-1.443,2.658l-.469,4.043a1.1,1.1,0,0,0,1.095,1.229H65.358a1.1,1.1,0,0,0,1.095-1.229Zm-6.334-8.3a2.129,2.129,0,1,1-2.134,2.129A2.134,2.134,0,0,1,59.649,243.665Zm-4.471,11.365.327-2.814a1.849,1.849,0,0,1,.66-1.215l.536-.444a1.868,1.868,0,0,1,1.19-.429h3.516a1.868,1.868,0,0,1,1.19.429l.536.444h0a1.848,1.848,0,0,1,.66,1.215l.327,2.814Z" transform="translate(-47.015 -89.071)" fill="#347c51"/>
    <path id="Path_32" data-name="Path 32" d="M231.051,325.453H213.385a1.1,1.1,0,0,0-1.1,1.1v4.312a1.1,1.1,0,0,0,1.1,1.1h17.666a1.1,1.1,0,0,0,1.1-1.1v-4.312A1.1,1.1,0,0,0,231.051,325.453Zm-1.1,4.312H214.487v-2.108h15.462Z" transform="translate(-188.885 -163.806)" fill="#347c51"/>
    <path id="Path_33" data-name="Path 33" d="M213.385,198.245h16.783a1.1,1.1,0,1,0,0-2.2H213.385a1.1,1.1,0,0,0,0,2.2Z" transform="translate(-188.885 -48.658)" fill="#347c51"/>
    <path id="Path_34" data-name="Path 34" d="M213.385,239.59h7.1a1.1,1.1,0,1,0,0-2.2h-7.1a1.1,1.1,0,0,0,0,2.2Z" transform="translate(-188.885 -85.446)" fill="#347c51"/>
    <path id="Path_35" data-name="Path 35" d="M213.385,280.935h11.778a1.1,1.1,0,0,0,0-2.2H213.385a1.1,1.1,0,0,0,0,2.2Z" transform="translate(-188.885 -122.234)" fill="#347c51"/>
    <path id="Path_36" data-name="Path 36" d="M53.941,198.245h4.992a1.1,1.1,0,1,0,0-2.2H53.941a1.1,1.1,0,1,0,0,2.2Z" transform="translate(-47.015 -48.658)" fill="#347c51"/>
    <path id="Path_37" data-name="Path 37" d="M321.185,237.908a1.1,1.1,0,1,0-.3,1.529A1.113,1.113,0,0,0,321.185,237.908Z" transform="translate(-283.992 -85.478)" fill="#347c51"/>
  </g>
</svg>
