<svg xmlns="http://www.w3.org/2000/svg" width="19" height="23.795" viewBox="0 0 19 23.795">
  <g id="Group_23" data-name="Group 23" transform="translate(-53.348 0.5)">
    <g id="Group_20" data-name="Group 20" transform="translate(53.848)">
      <g id="Group_19" data-name="Group 19" transform="translate(0)">
        <path id="Path_28" data-name="Path 28" d="M71.168,16.831a2.329,2.329,0,0,1-.758-1.714V8.459a.445.445,0,1,0-.89,0v6.658a3.221,3.221,0,0,0,1.048,2.371,1.157,1.157,0,0,1-.781,2.012H55.9a1.157,1.157,0,0,1-.781-2.012,3.221,3.221,0,0,0,1.048-2.371V9.973a6.68,6.68,0,0,1,9.592-6.01,3.3,3.3,0,1,0,.585-.7,7.549,7.549,0,0,0-2.111-.728,1.647,1.647,0,1,0-2.776,0,7.581,7.581,0,0,0-6.18,7.44v5.145a2.329,2.329,0,0,1-.758,1.714A2.048,2.048,0,0,0,55.9,20.391h4.131a2.849,2.849,0,0,0,5.629,0h4.131a2.048,2.048,0,0,0,1.382-3.559ZM68.553,3.295a2.4,2.4,0,1,1-2.4,2.4A2.407,2.407,0,0,1,68.553,3.295ZM62.841.89a.757.757,0,1,1-.757.757A.758.758,0,0,1,62.841.89Zm0,21.014a1.962,1.962,0,0,1-1.907-1.514h3.815A1.962,1.962,0,0,1,62.841,21.9Z" transform="translate(-53.848)" fill="#fff" stroke="#fff" stroke-width="1"/>
      </g>
    </g>
  </g>
</svg>
