<svg xmlns="http://www.w3.org/2000/svg" width="38.5" height="38.5" viewBox="0 0 38.5 38.5">
  <g id="Group_45" data-name="Group 45" transform="translate(0.25 0.25)">
    <g id="Group_28" data-name="Group 28">
      <g id="Group_27" data-name="Group 27">
        <path id="Path_38" data-name="Path 38" d="M34.289,3.266H30.751V2.227a2.227,2.227,0,0,0-4.453,0V3.266H13.829V2.227a2.227,2.227,0,0,0-4.453,0V3.293a.741.741,0,0,0-.2-.027H6.221A3.715,3.715,0,0,0,2.51,6.977V19.618a.742.742,0,0,0,1.484,0V10.91H36.887a.742.742,0,0,0,0-1.484H3.995V6.977A2.229,2.229,0,0,1,6.221,4.75H9.178a.744.744,0,0,0,.2-.027v.955a2.227,2.227,0,1,0,4.453,0V4.75H26.3v.928a2.227,2.227,0,1,0,4.453,0V4.75h3.538a2.229,2.229,0,0,1,2.227,2.227v28.2a1.336,1.336,0,1,1-2.673,0v-1.92a.742.742,0,0,0-.742-.742H18.852a.742.742,0,0,0,0,1.484H32.358v1.178a2.8,2.8,0,0,0,.337,1.336H2.82A1.337,1.337,0,0,1,1.484,35.18V34H21.449a.742.742,0,0,0,0-1.484H10.681a6.086,6.086,0,1,0-7.931,0H.742A.742.742,0,0,0,0,33.259v1.92A2.824,2.824,0,0,0,2.82,38H35.179A2.824,2.824,0,0,0,38,35.179V6.977A3.715,3.715,0,0,0,34.289,3.266ZM12.345,5.678a.742.742,0,0,1-1.484,0V2.227a.742.742,0,0,1,1.484,0Zm16.922,0a.742.742,0,1,1-1.484,0V2.227a.742.742,0,0,1,1.484,0ZM2.114,27.906a4.6,4.6,0,1,1,4.6,4.6A4.607,4.607,0,0,1,2.114,27.906Z" fill="#347c51" stroke="#347c51" stroke-width="0.5"/>
      </g>
    </g>
    <g id="Group_30" data-name="Group 30" transform="translate(13.971 22.563)">
      <g id="Group_29" data-name="Group 29">
        <path id="Path_39" data-name="Path 39" d="M191.065,304a2.82,2.82,0,1,0,2.82,2.82A2.824,2.824,0,0,0,191.065,304Zm0,4.156a1.336,1.336,0,1,1,1.336-1.336A1.337,1.337,0,0,1,191.065,308.156Z" transform="translate(-188.245 -304)" fill="#347c51" stroke="#347c51" stroke-width="0.5"/>
      </g>
    </g>
    <g id="Group_32" data-name="Group 32" transform="translate(20.898 22.563)">
      <g id="Group_31" data-name="Group 31">
        <path id="Path_40" data-name="Path 40" d="M284.4,304a2.82,2.82,0,1,0,2.82,2.82A2.824,2.824,0,0,0,284.4,304Zm0,4.156a1.336,1.336,0,1,1,1.336-1.336A1.337,1.337,0,0,1,284.4,308.156Z" transform="translate(-281.578 -304)" fill="#347c51" stroke="#347c51" stroke-width="0.5"/>
      </g>
    </g>
    <g id="Group_34" data-name="Group 34" transform="translate(27.825 22.563)">
      <g id="Group_33" data-name="Group 33">
        <path id="Path_41" data-name="Path 41" d="M377.732,304a2.82,2.82,0,1,0,2.82,2.82A2.824,2.824,0,0,0,377.732,304Zm0,4.156a1.336,1.336,0,1,1,1.336-1.336A1.337,1.337,0,0,1,377.732,308.156Z" transform="translate(-374.912 -304)" fill="#347c51" stroke="#347c51" stroke-width="0.5"/>
      </g>
    </g>
    <g id="Group_36" data-name="Group 36" transform="translate(7.044 14.844)">
      <g id="Group_35" data-name="Group 35">
        <path id="Path_42" data-name="Path 42" d="M97.732,200a2.82,2.82,0,1,0,2.82,2.82A2.824,2.824,0,0,0,97.732,200Zm0,4.156a1.336,1.336,0,1,1,1.336-1.336A1.337,1.337,0,0,1,97.732,204.156Z" transform="translate(-94.912 -200)" fill="#347c51" stroke="#347c51" stroke-width="0.5"/>
      </g>
    </g>
    <g id="Group_38" data-name="Group 38" transform="translate(20.898 14.844)">
      <g id="Group_37" data-name="Group 37">
        <path id="Path_43" data-name="Path 43" d="M284.4,200a2.82,2.82,0,1,0,2.82,2.82A2.824,2.824,0,0,0,284.4,200Zm0,4.156a1.336,1.336,0,1,1,1.336-1.336A1.337,1.337,0,0,1,284.4,204.156Z" transform="translate(-281.578 -200)" fill="#347c51" stroke="#347c51" stroke-width="0.5"/>
      </g>
    </g>
    <g id="Group_40" data-name="Group 40" transform="translate(27.825 14.844)">
      <g id="Group_39" data-name="Group 39">
        <path id="Path_44" data-name="Path 44" d="M377.732,200a2.82,2.82,0,1,0,2.82,2.82A2.824,2.824,0,0,0,377.732,200Zm0,4.156a1.336,1.336,0,1,1,1.336-1.336A1.337,1.337,0,0,1,377.732,204.156Z" transform="translate(-374.912 -200)" fill="#347c51" stroke="#347c51" stroke-width="0.5"/>
      </g>
    </g>
    <g id="Group_42" data-name="Group 42" transform="translate(13.971 14.844)">
      <g id="Group_41" data-name="Group 41">
        <path id="Path_45" data-name="Path 45" d="M191.065,200a2.82,2.82,0,1,0,2.82,2.82A2.824,2.824,0,0,0,191.065,200Zm0,4.156a1.336,1.336,0,1,1,1.336-1.336A1.337,1.337,0,0,1,191.065,204.156Z" transform="translate(-188.245 -200)" fill="#347c51" stroke="#347c51" stroke-width="0.5"/>
      </g>
    </g>
    <g id="Group_44" data-name="Group 44" transform="translate(3.8 25.88)">
      <g id="Group_43" data-name="Group 43">
        <path id="Path_46" data-name="Path 46" d="M56.754,348.918a.742.742,0,0,0-1.05,0l-2.417,2.417-.826-.826a.742.742,0,0,0-1.05,1.05l1.351,1.351a.742.742,0,0,0,1.05,0l2.942-2.942A.742.742,0,0,0,56.754,348.918Z" transform="translate(-51.194 -348.7)" fill="#347c51" stroke="#347c51" stroke-width="0.5"/>
      </g>
    </g>
  </g>
</svg>
