<svg xmlns="http://www.w3.org/2000/svg" width="27.419" height="24.001" viewBox="0 0 27.419 24.001">
  <g id="Group_18" data-name="Group 18" transform="translate(0.514 0.497)">
    <path id="Path_27" data-name="Path 27" d="M23.093,12.268a2.044,2.044,0,0,0,1.249.421,2.063,2.063,0,0,0,1.251-3.7L23,6.994V.519A.516.516,0,0,0,22.486,0H19.391a.516.516,0,0,0-.516.516V3.824L14.452.424a2.063,2.063,0,0,0-2.5,0L8.026,3.443a.516.516,0,1,0,.629.818l3.925-3.016a1.032,1.032,0,0,1,1.246,0L24.966,9.805a1.031,1.031,0,0,1-1.246,1.644L13.517,3.6a.516.516,0,0,0-.611-.013c-.023.016-10.218,7.858-10.219,7.859a1.031,1.031,0,0,1-.729.2.9.9,0,0,1-.9-.779A1.039,1.039,0,0,1,1.441,9.8L10.478,2.84a.516.516,0,1,0-.629-.818L.814,8.985A2.059,2.059,0,0,0,.054,11.1a1.924,1.924,0,0,0,1.8,1.578,2.059,2.059,0,0,0,1.454-.411h0L3.4,12.2V23H23V12.2ZM19.907,1.034H21.97V6.2L19.907,4.616ZM21.97,21.989H4.436V11.4L13.2,4.662,21.97,11.4Z" transform="translate(0)" fill="#fff" stroke="#fff" stroke-width="1"/>
  </g>
</svg>
