<svg xmlns="http://www.w3.org/2000/svg" width="38.3" height="40.006" viewBox="0 0 38.3 40.006">
  <g id="Group_46" data-name="Group 46" transform="translate(-10.851 0.15)">
    <path id="Path_47" data-name="Path 47" d="M102.006,154.882a2.776,2.776,0,1,0,2.776,2.776A2.779,2.779,0,0,0,102.006,154.882Zm0,4a1.225,1.225,0,1,1,1.225-1.225A1.226,1.226,0,0,1,102.006,158.882Z" transform="translate(-81.387 -142.871)" fill="#347c51" stroke="#347c51" stroke-width="0.3"/>
    <path id="Path_48" data-name="Path 48" d="M102.006,344.852a2.776,2.776,0,1,0,2.776,2.776A2.779,2.779,0,0,0,102.006,344.852Zm0,4a1.225,1.225,0,1,1,1.225-1.225A1.226,1.226,0,0,1,102.006,348.852Z" transform="translate(-81.387 -318.108)" fill="#347c51" stroke="#347c51" stroke-width="0.3"/>
    <path id="Path_49" data-name="Path 49" d="M102.006,249.867a2.776,2.776,0,1,0,2.776,2.776,2.779,2.779,0,0,0-2.776-2.776Zm0,4a1.225,1.225,0,1,1,1.225-1.225,1.226,1.226,0,0,1-1.225,1.225Z" transform="translate(-81.387 -230.489)" fill="#347c51" stroke="#347c51" stroke-width="0.3"/>
    <path id="Path_50" data-name="Path 50" d="M197.76,180.672h-7.847a.776.776,0,0,0,0,1.551h7.847a.776.776,0,1,0,0-1.551Z" transform="translate(-164.321 -166.661)" fill="#347c51" stroke="#347c51" stroke-width="0.3"/>
    <path id="Path_51" data-name="Path 51" d="M49,25.79A8.712,8.712,0,0,0,41.1,17.112V6.363a2.393,2.393,0,0,0-2.39-2.39H30.166a4.12,4.12,0,0,0-8.235,0H13.391A2.393,2.393,0,0,0,11,6.363V37.316a2.393,2.393,0,0,0,2.39,2.39H38.705a2.352,2.352,0,0,0,2.39-2.245V34.467A8.712,8.712,0,0,0,49,25.79ZM39.545,6.363V17.112a8.594,8.594,0,0,0-1.921.4V8.217a.776.776,0,0,0-.776-.776H33.875V5.524h4.83A.84.84,0,0,1,39.545,6.363ZM32.837,21.378H25.591a.776.776,0,0,0,0,1.551H32.12a8.751,8.751,0,0,0,.033,5.815H25.591a.776.776,0,0,0,0,1.551h7.3a8.76,8.76,0,0,0,3.18,3.091v1.3H16.024V8.993H36.073v9.2A8.762,8.762,0,0,0,32.837,21.378ZM22.764,5.524a.776.776,0,0,0,.762-.921,2.569,2.569,0,1,1,5.046,0,.776.776,0,0,0,.762.921h2.991V7.442H19.772V5.524ZM38.705,38.155H13.391a.84.84,0,0,1-.839-.839V6.363a.84.84,0,0,1,.839-.839h4.83V7.442H15.248a.775.775,0,0,0-.776.776V35.462a.775.775,0,0,0,.776.776h21.6a.776.776,0,0,0,.776-.776v-1.39a8.589,8.589,0,0,0,1.921.4v2.994a.829.829,0,0,1-.839.694Zm1.615-5.2a7.161,7.161,0,1,1,7.13-7.161A7.154,7.154,0,0,1,40.32,32.951Z" transform="translate(0)" fill="#347c51" stroke="#347c51" stroke-width="0.3"/>
    <path id="Path_52" data-name="Path 52" d="M381.283,298.443h-.671V296.8a.776.776,0,1,0-1.551,0v2.42a.776.776,0,0,0,.776.776h1.446a.776.776,0,1,0,0-1.551Z" transform="translate(-339.516 -273.066)" fill="#347c51" stroke="#347c51" stroke-width="0.3"/>
  </g>
</svg>
