<svg xmlns="http://www.w3.org/2000/svg" width="18" height="18" viewBox="0 0 18 18">
  <g id="save" transform="translate(0.5 0.5)">
    <g id="_x32__13_">
      <g id="Group_70" data-name="Group 70">
        <path id="Path_59" data-name="Path 59" d="M10.094,5.313a.531.531,0,0,0,.531-.531V2.656a.531.531,0,0,0-1.062,0V4.781A.531.531,0,0,0,10.094,5.313ZM14.875,0H2.125A2.125,2.125,0,0,0,0,2.125v12.75A2.125,2.125,0,0,0,2.125,17h12.75A2.125,2.125,0,0,0,17,14.875V2.125A2.125,2.125,0,0,0,14.875,0ZM4.25,1.063h8.5V5.844a.531.531,0,0,1-.531.531H4.781a.531.531,0,0,1-.531-.531ZM15.938,14.875a1.062,1.062,0,0,1-1.062,1.063H2.125a1.062,1.062,0,0,1-1.062-1.062V2.125A1.062,1.062,0,0,1,2.125,1.063H3.188V6.375A1.063,1.063,0,0,0,4.25,7.438h8.5a1.063,1.063,0,0,0,1.063-1.062V1.063h1.063a1.063,1.063,0,0,1,1.063,1.063Z" fill="#fff" stroke="#fff" stroke-width="1"/>
      </g>
    </g>
  </g>
</svg>
